# xmcd
#
# Track frame offsets: 
#        150
#        4552
#        30855
#        70632
#        88230
#        105510
#        110545
#        125312
#        129845
#        152162
#        182190
#        216812
#
# Disc length: 2998 seconds
#
# Revision: 1
# Processed by: cddbd v1.5.2PL0 Copyright (c) Steve Scherf et al.
# Submitted via: ExactAudioCopy v0.99pb5
#
DISCID=8f0bb40c
DTITLE=Various Artist - Dolphin Friends, Disc B
DYEAR=1999
DGENRE=New Age
TTITLE0=Sounds of the Earth - Dolphins: Above the Waves
TTITLE1=Henri Seroka - Atlantis
TTITLE2=Schawkie Roth - You Are the Ocean
TTITLE3=Paul Vens - All Friends
TTITLE4=Gregor Theelen - Mayra, Born in the Sea
TTITLE5=Gregor Theelen - The Whale in Action
TTITLE6=Lile Mikaël - Océan de vie
TTITLE7=Sounds of the Earth - Sea and Dolphins
TTITLE8=Christa Michell - Dolphin Song (Coda)
TTITLE9=Erik Berglund - Sea of Dreams
TTITLE10=Jean-Pierre Labrèche - The Path
TTITLE11=Discoveries in Nature - Water: Part One
EXTD=YEAR: 2004
EXTT0=
EXTT1=
EXTT2=
EXTT3=
EXTT4=
EXTT5=
EXTT6=
EXTT7=
EXTT8=
EXTT9=
EXTT10=
EXTT11=
PLAYORDER=
